<?xml version="1.0" encoding="UTF-8" standalone="no"?>
<!-- Created with Inkscape (http://www.inkscape.org/) -->

<svg
   width="150mm"
   height="20mm"
   viewBox="0 0 150 20"
   version="1.1"
   id="svg5"
   inkscape:version="1.2 (dc2aedaf03, 2022-05-15)"
   sodipodi:docname="press-home-for-menu.svg"
   xmlns:inkscape="http://www.inkscape.org/namespaces/inkscape"
   xmlns:sodipodi="http://sodipodi.sourceforge.net/DTD/sodipodi-0.dtd"
   xmlns="http://www.w3.org/2000/svg"
   xmlns:svg="http://www.w3.org/2000/svg">
  <sodipodi:namedview
     id="namedview7"
     pagecolor="#ffffff"
     bordercolor="#cccccc"
     borderopacity="1"
     inkscape:showpageshadow="0"
     inkscape:pageopacity="1"
     inkscape:pagecheckerboard="0"
     inkscape:deskcolor="#d1d1d1"
     inkscape:document-units="mm"
     showgrid="false"
     inkscape:zoom="1.9512184"
     inkscape:cx="261.37515"
     inkscape:cy="81.487547"
     inkscape:window-width="1920"
     inkscape:window-height="1011"
     inkscape:window-x="0"
     inkscape:window-y="32"
     inkscape:window-maximized="1"
     inkscape:current-layer="text200" />
  <defs
     id="defs2">
    <rect
       x="3.3075569"
       y="4.2128"
       width="582.52058"
       height="85.203174"
       id="rect202" />
  </defs>
  <g
     inkscape:label="Layer 1"
     inkscape:groupmode="layer"
     id="layer1">
    <g
       aria-label="Press HOME for menu ↓"
       transform="matrix(0.26458333,0,0,0.26458333,0.67731147,1.1124153)"
       id="text200"
       style="font-size:49.3333px;line-height:1.25;font-family:'IBM 3270';-inkscape-font-specification:'IBM 3270, ';letter-spacing:0px;word-spacing:0px;white-space:pre;shape-inside:url(#rect202)">
      <path
         d="M 9.1773035,35.391537 V 23.354212 h 9.6199935 l 5.08133,4.93333 v 1.923999 l -5.130663,5.179996 z m 0,3.058665 H 19.389297 c 0.394666,0 0.739999,-0.246667 1.035999,-0.542666 l 5.96933,-6.067997 c 0.296,-0.295999 0.394666,-0.641332 0.394666,-1.035999 v -3.157331 c 0,-0.394667 -0.148,-0.690666 -0.444,-0.986666 L 20.425296,20.78888 c -0.296,-0.296 -0.641333,-0.394666 -1.035999,-0.394666 H 6.2666387 v 27.083982 h 2.9106648 z"
         id="path536" />
      <path
         d="m 38.135903,34.404871 5.08133,-5.031997 h 2.367999 l 2.219998,2.121332 v 0.888 h 2.959998 v -1.479999 c 0,-0.444 -0.147999,-0.789333 -0.443999,-1.085333 l -3.107998,-3.009331 c -0.246667,-0.296 -0.592,-0.444 -1.036,-0.444 H 42.5759 c -0.394666,0 -0.739999,0.197333 -1.035999,0.493333 l -3.403998,3.453331 v -0.937333 c 0,-1.578665 -2.121332,-3.009331 -2.959998,-3.009331 h -2.417332 v 3.009331 h 0.888 c 0.493333,0 0.789333,0.148 1.134666,0.444 0.296,0.345333 0.443999,0.641333 0.443999,1.085333 v 16.477322 h 2.910665 z"
         id="path533" />
      <path
         d="M 62.309173,38.450202 H 77.306496 V 30.95154 c 0,-0.246666 -0.09867,-0.641333 -0.443999,-0.986666 l -2.910665,-3.058665 c -0.148,-0.148 -0.542666,-0.542666 -1.035999,-0.542666 h -8.929328 c -0.246667,0 -0.74,0.197333 -1.085333,0.542666 l -3.009331,3.107998 c -0.148,0.148 -0.493333,0.493333 -0.493333,0.986666 v 11.938659 c 0,0.246667 0.04933,0.690667 0.394666,1.036 l 3.058665,2.959998 c 0.148,0.148 0.542666,0.394666 0.986666,0.394666 H 77.405163 V 44.567531 H 64.430505 l -2.121332,-2.219998 z m 0.04933,-3.058665 v -3.798664 l 2.170665,-2.219999 h 7.794662 l 2.121332,2.170666 v 3.847997 z"
         id="path530" />
      <path
         d="m 100.9371,31.494206 v 0.937333 h 2.95999 v -1.578666 c 0,-0.394666 -0.148,-0.739999 -0.444,-1.035999 l -3.05866,-3.009331 c -0.296,-0.296 -0.641334,-0.444 -1.036,-0.444 h -8.830661 c -0.444,0 -0.789333,0.148 -1.085333,0.444 l -2.959998,3.107998 c -0.246666,0.246666 -0.394666,0.591999 -0.394666,0.961999 v 0.172667 c 0.04933,0.443999 0.197333,0.838666 0.542666,1.085332 L 100.3451,42.988866 98.865097,44.468865 H 91.169102 L 88.998437,42.298199 V 41.5582 h -2.959998 v 1.381332 c 0,0.444 0.148,0.789333 0.443999,1.085333 l 3.058665,2.959998 c 0.296,0.296 0.641333,0.444 1.035999,0.444 h 8.879995 c 0.394666,0 0.740003,-0.148 1.036003,-0.444 l 3.10799,-3.058665 c 0.296,-0.295999 0.444,-0.690666 0.444,-1.134666 0,-0.443999 -0.19733,-0.789332 -0.54266,-1.085332 L 89.738436,30.80354 91.169102,29.323541 h 7.597328 z"
         id="path527" />
      <path
         d="m 127.57703,31.494206 v 0.937333 h 2.96 v -1.578666 c 0,-0.394666 -0.148,-0.739999 -0.444,-1.035999 l -3.05866,-3.009331 c -0.296,-0.296 -0.64134,-0.444 -1.036,-0.444 h -8.83066 c -0.444,0 -0.78934,0.148 -1.08534,0.444 l -2.95999,3.107998 c -0.24667,0.246666 -0.39467,0.591999 -0.39467,0.961999 v 0.172667 c 0.0493,0.443999 0.19733,0.838666 0.54267,1.085332 l 13.71465,10.853327 -1.47999,1.479999 h -7.696 l -2.17066,-2.170666 V 41.5582 h -2.96 v 1.381332 c 0,0.444 0.148,0.789333 0.444,1.085333 l 3.05866,2.959998 c 0.296,0.296 0.64133,0.444 1.036,0.444 h 8.87999 c 0.39467,0 0.74,-0.148 1.036,-0.444 l 3.108,-3.058665 c 0.296,-0.295999 0.444,-0.690666 0.444,-1.134666 0,-0.443999 -0.19733,-0.789332 -0.54266,-1.085332 l -13.764,-10.90266 1.43067,-1.479999 h 7.59733 z"
         id="path524" />
      <path
         d="m 166.10624,20.394214 v 26.985315 h 2.91066 V 35.046204 h 14.70133 v 12.333325 h 2.91066 V 20.394214 h -2.91066 V 32.283539 H 169.0169 V 20.394214 Z"
         id="path521" />
      <path
         d="m 195.80484,25.475544 1.97333,-2.170666 h 10.40933 l 2.12133,2.219999 v 16.773322 l -2.12133,2.121332 h -10.45866 l -1.924,-1.973332 z m -2.56533,-1.578666 c -0.19733,0.197333 -0.49333,0.542666 -0.49333,0.986666 v 18.203988 c 0,0.246667 0.0987,0.74 0.444,1.085333 l 2.91066,2.811998 c 0.148,0.148 0.54267,0.394666 1.036,0.394666 h 11.64266 c 0.24667,0 0.69067,-0.09867 1.036,-0.443999 l 3.00933,-2.959998 c 0.19733,-0.148 0.444,-0.542667 0.444,-1.036 V 24.932877 c 0,-0.246666 -0.0493,-0.690666 -0.39467,-1.035999 l -2.95999,-3.058665 c -0.148,-0.197333 -0.592,-0.443999 -1.08534,-0.443999 h -11.69199 c -0.296,0 -0.74,0.04933 -1.08533,0.443999 z"
         id="path518" />
      <path
         d="m 231.12744,31.592873 5.82133,-6.215996 v 22.002652 h 2.96 v -25.55465 c 0,-0.641333 -0.34533,-1.183999 -0.93733,-1.430665 -0.074,-0.02467 -0.12334,-0.04933 -0.17267,-0.04933 -0.12333,0 -0.24667,0.04933 -0.37,0.04933 -0.34533,0 -0.74,0.09867 -1.036,0.394666 l -7.84399,8.041328 -7.64667,-7.942661 c -0.296,-0.296 -0.69066,-0.493333 -1.036,-0.493333 -0.19733,0 -0.34533,0.04933 -0.54266,0.147999 -0.592,0.246667 -0.93733,0.74 -0.93733,1.381333 v 25.455983 h 2.95999 V 25.475544 l 5.772,6.117329 v 3.749331 h 3.00933 z"
         id="path515" />
      <path
         d="m 246.02605,20.34488 v 27.083983 h 20.52266 v -2.959998 h -17.61199 v -9.175994 h 11.74132 v -3.009332 h -11.74132 v -8.929327 h 17.61199 V 20.34488 Z"
         id="path512" />
      <path
         d="m 310.20857,20.295547 h 6.956 v -2.959998 h -7.59733 c -0.444,0 -0.78933,0.148 -1.08533,0.444 l -2.812,2.910664 c -0.296,0.296 -0.39467,0.641333 -0.39467,1.036 v 4.63733 h -6.11733 v 3.009331 h 6.11733 v 18.055989 h 2.91067 V 29.372874 h 6.01866 v -3.009331 h -5.96933 v -4.045331 z"
         id="path509" />
      <path
         d="m 328.75784,31.39554 2.12133,-2.170665 h 8.04133 l 1.924,2.170665 v 10.951993 l -1.97334,2.071998 h -7.99199 l -2.12133,-2.071998 z m -2.46667,-1.627999 c -0.148,0.148 -0.49333,0.493333 -0.49333,0.986666 v 12.185325 c 0,0.296 0.0493,0.74 0.444,1.085333 l 3.05866,2.861331 c 0.19734,0.148 0.54267,0.345334 0.98667,0.345334 h 9.17599 0.17267 c 0.24667,0 0.592,-0.02467 0.86333,-0.345334 l 2.86133,-2.910664 c 0.148,-0.148 0.444,-0.542667 0.444,-1.036 V 30.852873 c 0,-0.246666 -0.0987,-0.641332 -0.39466,-0.937332 l -2.76267,-3.107998 c -0.19733,-0.197333 -0.592,-0.493333 -1.08533,-0.493333 h -9.27466 c -0.19733,0 -0.64133,0 -0.98667,0.345333 z"
         id="path506" />
      <path
         d="m 357.81512,34.404871 5.08133,-5.031997 h 2.368 l 2.22,2.121332 v 0.888 h 2.96 v -1.479999 c 0,-0.444 -0.148,-0.789333 -0.444,-1.085333 l -3.108,-3.009331 c -0.24667,-0.296 -0.592,-0.444 -1.036,-0.444 h -3.60133 c -0.39467,0 -0.74,0.197333 -1.036,0.493333 l -3.404,3.453331 v -0.937333 c 0,-1.578665 -2.12133,-3.009331 -2.96,-3.009331 h -2.41733 v 3.009331 h 0.888 c 0.49333,0 0.78933,0.148 1.13467,0.444 0.296,0.345333 0.444,0.641333 0.444,1.085333 v 16.477322 h 2.91066 z"
         id="path503" />
      <path
         d="m 417.65633,31.444873 2.02266,-2.071999 h 1.924 l 2.02267,2.022666 v 16.033323 h 2.95999 V 30.80354 c 0,-0.394666 -0.14799,-0.739999 -0.44399,-1.035999 l -2.91067,-2.910665 c -0.296,-0.296 -0.64133,-0.444 -1.036,-0.444 h -3.15733 c -0.39467,0 -0.74,0.148 -1.036,0.444 l -1.87467,1.874665 -1.77599,-1.923998 c -0.296,-0.296 -0.64134,-0.444 -1.08534,-0.444 H 410.207 c -0.39467,0 -0.74,0.148 -1.036,0.444 l -0.444,0.443999 v -0.838666 h -3.00933 v 21.015987 h 2.96 V 31.494206 l 2.17066,-2.121332 h 1.776 l 2.02267,2.071999 v 15.98399 h 3.00933 z"
         id="path500" />
      <path
         d="m 435.26826,38.450202 h 14.99732 V 30.95154 c 0,-0.246666 -0.0987,-0.641333 -0.444,-0.986666 l -2.91066,-3.058665 c -0.148,-0.148 -0.54267,-0.542666 -1.036,-0.542666 h -8.92933 c -0.24667,0 -0.74,0.197333 -1.08533,0.542666 l -3.00934,3.107998 c -0.148,0.148 -0.49333,0.493333 -0.49333,0.986666 v 11.938659 c 0,0.246667 0.0493,0.690667 0.39467,1.036 l 3.05866,2.959998 c 0.148,0.148 0.54267,0.394666 0.98667,0.394666 h 13.56666 v -2.762665 h -12.97466 l -2.12133,-2.219998 z m 0.0493,-3.058665 v -3.798664 l 2.17066,-2.219999 h 7.79467 l 2.12133,2.170666 v 3.847997 z"
         id="path497" />
      <path
         d="m 464.32551,28.040875 -1.28266,-1.233332 c -0.148,-0.197333 -0.444,-0.444 -0.93734,-0.444 h -3.108 v 2.910665 h 2.41734 l 0.888,0.986666 c -0.0987,0.246666 -0.19734,0.444 -0.19734,0.591999 v 16.526656 h 2.96 V 31.444873 l 2.072,-2.170665 h 4.93333 l 2.12133,2.022665 v 16.033323 h 2.812 V 30.704874 c 0,-0.493333 -0.296,-0.888 -0.444,-1.036 l -2.91066,-2.861331 c -0.34534,-0.345333 -0.74,-0.394667 -0.98667,-0.394667 h -6.11733 c -0.49333,0 -0.888,0.296 -1.036,0.444 z"
         id="path494" />
      <path
         d="m 501.22679,45.702197 1.28267,1.233333 c 0.148,0.197333 0.54266,0.394666 1.036,0.394666 h 3.00933 v -2.861331 h -2.41733 l -0.888,-0.986666 c 0.0987,-0.246667 0.19733,-0.444 0.19733,-0.592 V 26.363543 h -2.96 v 15.934656 l -2.072,2.170666 h -7.79466 l -2.02266,-2.022666 V 26.363543 h -2.91067 v 16.674656 c 0,0.493333 0.296,0.887999 0.444,1.035999 l 2.91067,2.861332 c 0.34533,0.345333 0.74,0.394666 0.98666,0.394666 h 8.97866 c 0.49334,0 0.888,-0.296 1.036,-0.444 z"
         id="path491" />
      <path
         d="m 546.56401,20.394214 v 14.257324 h -6.01867 l 7.49867,8.830661 7.49866,-8.830661 H 549.524 V 20.394214 Z"
         id="path488" />
    </g>
  </g>
</svg>
